<?xml version="1.0" standalone="no"?>
<!DOCTYPE svg PUBLIC "-//W3C//DTD SVG 1.1//EN" "https://www.w3.org/Graphics/SVG/1.1/DTD/svg11.dtd">

<svg width="800" height="600" version="1.1" xmlns="http://www.w3.org/2000/svg">
	<ellipse stroke="black" stroke-width="1" fill="none" cx="346.5" cy="290.5" rx="30" ry="30"/>
	<text x="328.5" y="296.5" font-family="Times New Roman" font-size="20">emit</text>
	<ellipse stroke="black" stroke-width="1" fill="none" cx="260.5" cy="480.5" rx="30" ry="30"/>
	<text x="238.5" y="486.5" font-family="Times New Roman" font-size="20">load2</text>
	<ellipse stroke="black" stroke-width="1" fill="none" cx="471.5" cy="165.5" rx="30" ry="30"/>
	<text x="448.5" y="171.5" font-family="Times New Roman" font-size="20">drop1</text>
	<ellipse stroke="black" stroke-width="1" fill="none" cx="593.5" cy="113.5" rx="30" ry="30"/>
	<text x="576.5" y="119.5" font-family="Times New Roman" font-size="20">next</text>
	<ellipse stroke="black" stroke-width="1" fill="none" cx="95.5" cy="71.5" rx="30" ry="30"/>
	<text x="77.5" y="77.5" font-family="Times New Roman" font-size="20">state</text>
	<ellipse stroke="black" stroke-width="1" fill="none" cx="283.5" cy="71.5" rx="30" ry="30"/>
	<text x="259.5" y="77.5" font-family="Times New Roman" font-size="20">push1</text>
	<ellipse stroke="black" stroke-width="1" fill="none" cx="462.5" cy="71.5" rx="30" ry="30"/>
	<text x="439.5" y="77.5" font-family="Times New Roman" font-size="20">save0</text>
	<ellipse stroke="black" stroke-width="1" fill="none" cx="88.5" cy="173.5" rx="30" ry="30"/>
	<text x="74.5" y="179.5" font-family="Times New Roman" font-size="20">key</text>
	<ellipse stroke="black" stroke-width="1" fill="none" cx="446.5" cy="290.5" rx="30" ry="30"/>
	<text x="427.5" y="296.5" font-family="Times New Roman" font-size="20">store</text>
	<ellipse stroke="black" stroke-width="1" fill="none" cx="569.5" cy="240.5" rx="30" ry="30"/>
	<text x="546.5" y="246.5" font-family="Times New Roman" font-size="20">drop2</text>
	<ellipse stroke="black" stroke-width="1" fill="none" cx="260.5" cy="290.5" rx="30" ry="30"/>
	<text x="240.5" y="296.5" font-family="Times New Roman" font-size="20">fetch</text>
	<ellipse stroke="black" stroke-width="1" fill="none" cx="88.5" cy="290.5" rx="30" ry="30"/>
	<text x="69.5" y="296.5" font-family="Times New Roman" font-size="20">nand</text>
	<ellipse stroke="black" stroke-width="1" fill="none" cx="283.5" cy="173.5" rx="30" ry="30"/>
	<text x="260.5" y="179.5" font-family="Times New Roman" font-size="20">save1</text>
	<ellipse stroke="black" stroke-width="1" fill="none" cx="174.5" cy="290.5" rx="30" ry="30"/>
	<text x="157.5" y="296.5" font-family="Times New Roman" font-size="20">plus</text>
	<polygon stroke="black" stroke-width="1" points="334.129,317.831 272.871,453.169"/>
	<polygon fill="black" stroke-width="1" points="272.871,453.169 280.725,447.943 271.614,443.819"/>
	<polygon stroke="black" stroke-width="1" points="499.098,153.737 565.902,125.263"/>
	<polygon fill="black" stroke-width="1" points="565.902,125.263 556.582,123.8 560.503,132.999"/>
	<polygon stroke="black" stroke-width="1" points="125.5,71.5 253.5,71.5"/>
	<polygon fill="black" stroke-width="1" points="253.5,71.5 245.5,66.5 245.5,76.5"/>
	<polygon stroke="black" stroke-width="1" points="313.5,71.5 432.5,71.5"/>
	<polygon fill="black" stroke-width="1" points="432.5,71.5 424.5,66.5 424.5,76.5"/>
	<polygon stroke="black" stroke-width="1" points="491.068,80.659 564.932,104.341"/>
	<polygon fill="black" stroke-width="1" points="564.932,104.341 558.841,97.137 555.788,106.66"/>
	<polygon stroke="black" stroke-width="1" points="115.083,159.595 256.917,85.405"/>
	<polygon fill="black" stroke-width="1" points="256.917,85.405 247.511,84.682 252.146,93.543"/>
	<polygon stroke="black" stroke-width="1" points="425.514,311.938 281.486,459.062"/>
	<polygon fill="black" stroke-width="1" points="281.486,459.062 290.656,456.843 283.51,449.848"/>
	<polygon stroke="black" stroke-width="1" points="281.486,459.062 425.514,311.938"/>
	<polygon fill="black" stroke-width="1" points="425.514,311.938 416.344,314.157 423.49,321.152"/>
	<polygon stroke="black" stroke-width="1" points="474.292,279.203 541.708,251.797"/>
	<polygon fill="black" stroke-width="1" points="541.708,251.797 532.414,250.178 536.18,259.442"/>
	<polygon stroke="black" stroke-width="1" points="545.676,222.267 495.324,183.733"/>
	<polygon fill="black" stroke-width="1" points="495.324,183.733 498.638,192.565 504.716,184.624"/>
	<polygon stroke="black" stroke-width="1" points="260.5,320.5 260.5,450.5"/>
	<polygon fill="black" stroke-width="1" points="260.5,450.5 265.5,442.5 255.5,442.5"/>
	<polygon stroke="black" stroke-width="1" points="260.5,450.5 260.5,320.5"/>
	<polygon fill="black" stroke-width="1" points="260.5,320.5 255.5,328.5 265.5,328.5"/>
	<polygon stroke="black" stroke-width="1" points="280.84,268.448 442.16,93.552"/>
	<polygon fill="black" stroke-width="1" points="442.16,93.552 433.061,96.042 440.411,102.822"/>
	<polygon stroke="black" stroke-width="1" points="108.634,312.741 240.366,458.259"/>
	<polygon fill="black" stroke-width="1" points="240.366,458.259 238.704,448.973 231.291,455.684"/>
	<polygon stroke="black" stroke-width="1" points="240.366,458.259 108.634,312.741"/>
	<polygon fill="black" stroke-width="1" points="108.634,312.741 110.296,322.027 117.709,315.316"/>
	<polygon stroke="black" stroke-width="1" points="309.565,158.647 436.435,86.353"/>
	<polygon fill="black" stroke-width="1" points="436.435,86.353 427.009,85.969 431.96,94.658"/>
	<polygon stroke="black" stroke-width="1" points="114.225,275.065 257.775,188.935"/>
	<polygon fill="black" stroke-width="1" points="257.775,188.935 248.343,188.763 253.488,197.338"/>
	<polygon stroke="black" stroke-width="1" points="186.871,317.831 248.129,453.169"/>
	<polygon fill="black" stroke-width="1" points="248.129,453.169 249.386,443.819 240.275,447.943"/>
	<polygon stroke="black" stroke-width="1" points="248.129,453.169 186.871,317.831"/>
	<polygon fill="black" stroke-width="1" points="186.871,317.831 185.614,327.181 194.725,323.057"/>
	<polygon stroke="black" stroke-width="1" points="194.949,268.55 263.051,195.45"/>
	<polygon fill="black" stroke-width="1" points="263.051,195.45 253.939,197.896 261.256,204.712"/>
	<polygon stroke="black" stroke-width="1" points="272.871,453.169 334.129,317.831"/>
	<polygon fill="black" stroke-width="1" points="334.129,317.831 326.275,323.057 335.386,327.181"/>
	<polygon stroke="black" stroke-width="1" points="367.713,269.287 450.287,186.713"/>
	<polygon fill="black" stroke-width="1" points="450.287,186.713 441.094,188.835 448.165,195.906"/>
</svg>
